<svg data-v-29081953="" xmlns="http://www.w3.org/2000/svg" viewBox="0 0 300 300">
    <!---->
    <defs data-v-29081953="">
    <!---->
    </defs>
    <rect data-v-29081953="" fill="#48463E" x="0" y="0" width="300px" height="300px" class="logo-background-square"></rect>
    <defs data-v-29081953=""><!----></defs>
    <g data-v-29081953="" 
        id="bde826a4-e59b-450d-a3f9-c5f359b9d276" 
        fill="#ffffff" 
        transform="matrix(4.167112125935528,0,0,4.167112125935528,113.94272415873093,115.4754746854411)">
        <path d="M2.43 13.33L1.34 13.33L1.34 13.33Q0.93 13.33 0.93 12.92L0.93 12.92L0.93 4.85L0.93 4.85Q0.93 4.54 1.07 4.29L1.07 4.29L1.60 3.36L1.60 3.36Q1.75 3.10 1.96 3.10L1.96 3.10L2.43 3.10L2.43 3.10Q2.84 3.10 2.84 3.51L2.84 3.51L2.84 12.92L2.84 12.92Q2.84 13.33 2.43 13.33L2.43 13.33ZM4.69 10.35L4.69 10.35L4.69 6.56L4.69 6.56Q4.69 6.15 5.10 6.15L5.10 6.15L6.19 6.15L6.19 6.15Q6.60 6.15 6.60 6.56L6.60 6.56L6.60 9.86L6.60 9.86Q6.60 11.35 6.81 11.74L6.81 11.74L6.81 11.74Q7.01 12.13 7.67 12.13L7.67 12.13L7.67 12.13Q8.37 12.13 8.73 11.57L8.73 11.57L8.73 11.57Q9.09 11.01 9.09 9.26L9.09 9.26L9.09 6.56L9.09 6.56Q9.09 6.15 9.50 6.15L9.50 6.15L10.60 6.15L10.60 6.15Q11.01 6.15 11.01 6.56L11.01 6.56L11.01 12.92L11.01 12.92Q11.01 13.33 10.60 13.33L10.60 13.33L9.52 13.33L9.52 13.33Q9.11 13.33 9.11 12.92L9.11 12.92L9.11 12.52L9.08 12.52L9.08 12.52Q8.76 13.06 8.28 13.27L8.28 13.27L8.28 13.27Q7.79 13.47 7.13 13.47L7.13 13.47L7.13 13.47Q6.08 13.47 5.39 12.80L5.39 12.80L5.39 12.80Q4.69 12.13 4.69 10.35ZM14.36 13.33L13.28 13.33L13.28 13.33Q12.87 13.33 12.87 12.92L12.87 12.92L12.87 3.65L12.87 3.65Q12.87 3.24 13.28 3.24L13.28 3.24L14.37 3.24L14.37 3.24Q14.78 3.24 14.78 3.65L14.78 3.65L14.78 6.41L14.78 6.41Q14.78 6.69 14.75 6.96L14.75 6.96L14.78 6.96L14.78 6.96Q15.13 6.37 15.57 6.19L15.57 6.19L15.57 6.19Q16.01 6.02 16.63 6.02L16.63 6.02L16.63 6.02Q18.23 6.02 18.88 7.13L18.88 7.13L18.88 7.13Q19.54 8.24 19.54 9.74L19.54 9.74L19.54 9.74Q19.54 11.25 18.88 12.36L18.88 12.36L18.88 12.36Q18.23 13.47 16.63 13.47L16.63 13.47L16.63 13.47Q16.01 13.47 15.57 13.29L15.57 13.29L15.57 13.29Q15.13 13.11 14.78 12.52L14.78 12.52L14.75 12.52L14.72 12.92L14.72 12.92Q14.70 13.33 14.36 13.33L14.36 13.33ZM14.78 9.43L14.78 10.05L14.78 10.05Q14.78 10.97 15.15 11.55L15.15 11.55L15.15 11.55Q15.51 12.13 16.02 12.13L16.02 12.13L16.02 12.13Q16.95 12.13 17.23 11.48L17.23 11.48L17.23 11.48Q17.51 10.83 17.51 9.74L17.51 9.74L17.51 9.74Q17.51 8.65 17.23 8.00L17.23 8.00L17.23 8.00Q16.95 7.36 16.02 7.36L16.02 7.36L16.02 7.36Q15.51 7.36 15.15 7.93L15.15 7.93L15.15 7.93Q14.78 8.51 14.78 9.43L14.78 9.43ZM20.63 11.42L20.63 11.42L20.63 11.42Q20.63 10.05 21.94 9.43L21.94 9.43L21.94 9.43Q23.24 8.82 24.92 8.78L24.92 8.78L24.92 8.50L24.92 8.50Q24.92 7.88 24.60 7.62L24.60 7.62L24.60 7.62Q24.29 7.36 23.73 7.36L23.73 7.36L23.73 7.36Q23.33 7.36 23.03 7.47L23.03 7.47L23.03 7.47Q22.72 7.58 22.50 7.73L22.50 7.73L22.50 7.73Q22.28 7.88 22.10 8.03L22.10 8.03L22.10 8.03Q21.79 8.30 21.58 8.05L21.58 8.05L21.01 7.36L21.01 7.36Q20.80 7.10 21.12 6.82L21.12 6.82L21.12 6.82Q21.36 6.61 21.67 6.45L21.67 6.45L21.67 6.45Q21.99 6.30 22.52 6.16L22.52 6.16L22.52 6.16Q23.04 6.02 23.88 6.02L23.88 6.02L23.88 6.02Q25.31 6.02 26.07 6.67L26.07 6.67L26.07 6.67Q26.83 7.33 26.83 8.61L26.83 8.61L26.83 12.92L26.83 12.92Q26.83 13.33 26.42 13.33L26.42 13.33L25.30 13.33L25.30 13.33Q24.93 13.33 24.93 12.92L24.93 12.92L24.93 12.71L24.92 12.71L24.92 12.71Q24.51 13.10 23.95 13.29L23.95 13.29L23.95 13.29Q23.39 13.47 22.91 13.47L22.91 13.47L22.91 13.47Q21.79 13.47 21.21 12.92L21.21 12.92L21.21 12.92Q20.63 12.37 20.63 11.42ZM22.65 11.38L22.65 11.38L22.65 11.38Q22.65 11.61 22.75 11.79L22.75 11.79L22.75 11.79Q22.85 11.96 23.05 12.04L23.05 12.04L23.05 12.04Q23.26 12.13 23.51 12.13L23.51 12.13L23.51 12.13Q23.86 12.13 24.19 12.03L24.19 12.03L24.19 12.03Q24.51 11.94 24.92 11.58L24.92 11.58L24.92 10.10L24.92 10.10Q23.77 10.23 23.38 10.43L23.38 10.43L23.38 10.43Q22.99 10.64 22.82 10.86L22.82 10.86L22.82 10.86Q22.65 11.07 22.65 11.38ZM30.19 13.33L29.10 13.33L29.10 13.33Q28.69 13.33 28.69 12.92L28.69 12.92L28.69 6.56L28.69 6.56Q28.69 6.15 29.10 6.15L29.10 6.15L30.18 6.15L30.18 6.15Q30.59 6.15 30.59 6.56L30.59 6.56L30.59 6.96L30.62 6.96L30.62 6.96Q30.93 6.42 31.42 6.22L31.42 6.22L31.42 6.22Q31.90 6.02 32.59 6.02L32.59 6.02L32.59 6.02Q33.65 6.02 34.35 6.69L34.35 6.69L34.35 6.69Q35.05 7.36 35.05 9.13L35.05 9.13L35.05 12.92L35.05 12.92Q35.05 13.33 34.64 13.33L34.64 13.33L33.54 13.33L33.54 13.33Q33.13 13.33 33.13 12.92L33.13 12.92L33.13 9.63L33.13 9.63Q33.13 8.13 32.93 7.75L32.93 7.75L32.93 7.75Q32.72 7.36 32.05 7.36L32.05 7.36L32.05 7.36Q31.33 7.36 30.97 7.91L30.97 7.91L30.97 7.91Q30.60 8.47 30.60 10.23L30.60 10.23L30.60 12.92L30.60 12.92Q30.60 13.33 30.19 13.33L30.19 13.33Z">
        </path>
    </g>
    <defs data-v-29081953=""><!----></defs>
    <g data-v-29081953="" 
        id="8e59a0fe-779a-4b48-8337-39c518ec5c99" 
        stroke="none" 
        fill="#CB594D" 
        transform="matrix(0.6481813871403571,0,0,0.6481813871403571,39.351818612859645,116.9427496035534)">
        <path d="M96.863.999H5.136L51 46.862zM77.463 28.678l22.329 22.325L77.468 73.33 55.139 51.005zM31.6 74.537h38.8L51 55.137zM1 5.136v91.726l45.864-45.863zM25.75 80.389L5.136 101.001H49.79l20.612-20.612zM101 101.001V58.063l-42.937 42.938zM81.601 24.537L101 43.938V5.137z">
        </path>
    </g>
    <!---->
</svg>