<svg xmlns="http://www.w3.org/2000/svg" viewBox="118 129 142 42">
  <path fill="none" class="logo-background-square" d="M0 0h300v300H0z"/>
  <path d="M124.069 171.023h-4.542q-1.709 0-1.709-1.708v-33.629q0-1.292.584-2.334l2.208-3.875q.625-1.083 1.5-1.083h1.959q1.708 0 1.708 1.708v39.213q0 1.708-1.708 1.708zm9.417-12.418v-15.793q0-1.709 1.709-1.709h4.542q1.709 0 1.709 1.709v13.751q0 6.21.875 7.834.833 1.626 3.583 1.626 2.917 0 4.418-2.334 1.5-2.334 1.5-9.626v-11.251q0-1.709 1.708-1.709h4.584q1.709 0 1.709 1.709v26.503q0 1.708-1.709 1.708h-4.5q-1.709 0-1.709-1.708v-1.667h-.125q-1.333 2.25-3.334 3.125-2.041.833-4.792.833-4.375 0-7.25-2.791-2.918-2.792-2.918-10.21zm40.296 12.418h-4.5q-1.709 0-1.709-1.708v-38.63q0-1.708 1.709-1.708h4.542q1.709 0 1.709 1.708v11.502q0 1.166-.125 2.292h.125q1.458-2.459 3.292-3.21 1.833-.708 4.417-.708 6.667 0 9.376 4.626 2.75 4.625 2.75 10.876 0 6.292-2.75 10.918-2.709 4.625-9.376 4.625-2.584 0-4.417-.75-1.834-.75-3.292-3.208h-.125l-.125 1.667q-.084 1.708-1.5 1.708zm1.75-16.252v2.584q0 3.834 1.542 6.25 1.5 2.418 3.626 2.418 3.875 0 5.042-2.71 1.167-2.708 1.167-7.25t-1.167-7.25q-1.167-2.668-5.042-2.668-2.125 0-3.626 2.376-1.541 2.417-1.541 6.25zm24.378 8.293q0-5.709 5.46-8.293 5.416-2.542 12.417-2.708v-1.167q0-2.584-1.333-3.667-1.292-1.084-3.626-1.084-1.667 0-2.917.459-1.291.458-2.208 1.083-.917.625-1.667 1.25-1.292 1.126-2.167.084l-2.375-2.876q-.875-1.083.458-2.25 1-.875 2.292-1.542 1.334-.625 3.542-1.208 2.167-.584 5.667-.584 5.96 0 9.126 2.71 3.167 2.75 3.167 8.083v17.96q0 1.71-1.708 1.71h-4.667q-1.542 0-1.542-1.71v-.875h-.042q-1.708 1.626-4.042 2.417-2.334.75-4.334.75-4.667 0-7.084-2.291-2.417-2.292-2.417-6.251zm8.418-.167q0 .959.417 1.709.416.708 1.25 1.042.875.375 1.917.375 1.458 0 2.833-.417 1.334-.375 3.042-1.875v-6.168q-4.792.542-6.417 1.375-1.625.876-2.334 1.792-.708.875-.708 2.167zm31.42 8.126h-4.542q-1.709 0-1.709-1.708v-26.503q0-1.709 1.709-1.709h4.5q1.709 0 1.709 1.709v1.667h.125q1.292-2.25 3.333-3.084 2-.834 4.876-.834 4.417 0 7.334 2.792T260 153.521v15.794q0 1.708-1.709 1.708h-4.583q-1.709 0-1.709-1.708v-13.71q0-6.25-.833-7.834-.875-1.626-3.667-1.626-3 0-4.5 2.292-1.543 2.334-1.543 9.668v11.21q0 1.708-1.708 1.708z" fill="#fff"/>
</svg>